<svg width="389" height="389" viewBox="0 0 389 389" fill="none" xmlns="http://www.w3.org/2000/svg">
<path d="M389 297.507H0V297.702H389V297.507Z" fill="#EBEBEB"/>
<path d="M350.022 310.025H282.414V310.22H350.022V310.025Z" fill="#EBEBEB"/>
<path d="M285.02 302.805H278.26V303H285.02V302.805Z" fill="#EBEBEB"/>
<path d="M232.863 309.255H217.933V309.45H232.863V309.255Z" fill="#EBEBEB"/>
<path d="M57.6186 304.113H40.8138V304.307H57.6186V304.113Z" fill="#EBEBEB"/>
<path d="M86.2724 304.113H64.5428V304.307H86.2724V304.113Z" fill="#EBEBEB"/>
<path d="M198.009 307.302H161.567V307.497H198.009V307.302Z" fill="#EBEBEB"/>
<path d="M184.386 262.808H34.162C32.9852 262.806 31.8572 262.337 31.0258 261.505C30.1944 260.672 29.7274 259.543 29.7274 258.366V47.1935C29.7377 46.0234 30.2091 44.9046 31.0395 44.0801C31.8698 43.2556 32.9919 42.792 34.162 42.79H184.386C185.564 42.79 186.694 43.2581 187.527 44.0912C188.36 44.9243 188.828 46.0542 188.828 47.2324V258.366C188.828 259.544 188.36 260.674 187.527 261.507C186.694 262.34 185.564 262.808 184.386 262.808ZM34.162 42.9456C33.0368 42.9477 31.9583 43.3962 31.1633 44.1926C30.3684 44.989 29.9219 46.0683 29.9219 47.1935V258.366C29.9219 259.491 30.3684 260.571 31.1633 261.367C31.9583 262.163 33.0368 262.612 34.162 262.614H184.386C185.512 262.612 186.591 262.164 187.387 261.368C188.184 260.571 188.632 259.492 188.634 258.366V47.1935C188.632 46.0675 188.184 44.9883 187.387 44.1921C186.591 43.3959 185.512 42.9477 184.386 42.9456H34.162Z" fill="#EBEBEB"/>
<path d="M352.675 262.808H202.443C201.266 262.806 200.137 262.338 199.304 261.505C198.472 260.672 198.003 259.544 198.001 258.366V47.1935C198.013 46.0227 198.486 44.9039 199.318 44.0796C200.15 43.2554 201.272 42.792 202.443 42.79H352.675C353.844 42.7941 354.964 43.2586 355.793 44.0829C356.621 44.9071 357.092 46.0248 357.102 47.1935V258.366C357.102 259.542 356.636 260.669 355.806 261.502C354.977 262.334 353.851 262.804 352.675 262.808ZM202.443 42.9456C201.317 42.9477 200.238 43.3959 199.442 44.1921C198.646 44.9883 198.198 46.0675 198.195 47.1935V258.366C198.198 259.492 198.646 260.571 199.442 261.368C200.238 262.164 201.317 262.612 202.443 262.614H352.675C353.801 262.612 354.88 262.164 355.677 261.368C356.473 260.571 356.921 259.492 356.923 258.366V47.1935C356.921 46.0675 356.473 44.9883 355.677 44.1921C354.88 43.3959 353.801 42.9477 352.675 42.9456H202.443Z" fill="#EBEBEB"/>
<path d="M201.191 248.836H150.932L146.14 165.59C146.105 165.109 146.171 164.626 146.332 164.172C146.494 163.718 146.748 163.302 147.079 162.951C147.409 162.6 147.809 162.321 148.252 162.133C148.696 161.944 149.174 161.85 149.656 161.855H192.446C193.453 161.867 194.418 162.258 195.15 162.95C195.881 163.642 196.324 164.585 196.391 165.59L201.191 248.836Z" fill="#E0E0E0"/>
<path d="M206.263 248.836H155.981L151.181 165.59C151.148 165.108 151.214 164.625 151.377 164.171C151.539 163.717 151.794 163.301 152.125 162.951C152.456 162.6 152.857 162.321 153.301 162.133C153.745 161.944 154.223 161.85 154.705 161.855H197.495C198.503 161.867 199.469 162.257 200.202 162.949C200.934 163.641 201.379 164.584 201.448 165.59L206.263 248.836Z" fill="#EBEBEB"/>
<path d="M156.985 238.449H191.995V248.836H153.266V242.184C153.266 241.196 153.657 240.248 154.354 239.549C155.051 238.849 155.997 238.453 156.985 238.449Z" fill="#E0E0E0"/>
<path d="M184.277 238.449H228.841C229.831 238.449 230.781 238.843 231.482 239.543C232.182 240.243 232.575 241.193 232.575 242.184V248.836H180.543V242.184C180.543 241.193 180.936 240.243 181.637 239.543C182.337 238.843 183.287 238.449 184.277 238.449Z" fill="#EBEBEB"/>
<path d="M154.347 248.835H150.901V297.507H154.347V248.835Z" fill="#E0E0E0"/>
<path d="M179.656 248.835H176.209V297.507H179.656V248.835Z" fill="#E0E0E0"/>
<path d="M206.481 248.835H203.035V297.507H206.481V248.835Z" fill="#E0E0E0"/>
<path d="M231.782 248.835H228.335V297.507H231.782V248.835Z" fill="#E0E0E0"/>
<path d="M147.4 210.395H70.588V214.868H147.4V210.395Z" fill="#E6E6E6"/>
<path d="M147.408 214.868H75.6917V292.092H147.408V214.868Z" fill="#EBEBEB"/>
<path d="M147.4 292.092H320.31V214.868H147.4V292.092Z" fill="#F5F5F5"/>
<path d="M75.6916 218.182L320.318 218.182V214.868L75.6916 214.868V218.182Z" fill="#E0E0E0"/>
<path d="M147.4 214.868L325.414 214.868V210.395L147.4 210.395V214.868Z" fill="#F0F0F0"/>
<path d="M75.6917 292.092V297.507L89.9757 292.092H75.6917Z" fill="#EBEBEB"/>
<path d="M147.408 292.092V297.507L161.692 292.092H147.408Z" fill="#F5F5F5"/>
<path d="M320.318 292.092V297.507L306.034 292.092H320.318Z" fill="#F5F5F5"/>
<path d="M147.408 292.092V297.507L133.116 292.092H147.408Z" fill="#EBEBEB"/>
<path d="M248.602 292.092V297.507L234.318 292.092H248.602Z" fill="#E0E0E0"/>
<path d="M248.602 292.092V297.507L262.894 292.092H248.602Z" fill="#E0E0E0"/>
<path d="M224.461 60.1628H160.641V140.911H224.461V60.1628Z" fill="#E6E6E6"/>
<path d="M228.359 60.1628H164.539V140.911H228.359V60.1628Z" fill="#F5F5F5"/>
<path d="M221.364 137.27V63.7961H171.541V137.27H221.364Z" fill="white"/>
<path d="M221.357 137.27V63.7961H218.408V137.27H221.357Z" fill="#E6E6E6"/>
<path d="M225.464 96.6121H167.433V101.49H225.464V96.6121Z" fill="#F5F5F5"/>
<path d="M225.464 80.3831H167.433V85.2611H225.464V80.3831Z" fill="#F5F5F5"/>
<path d="M310.5 60.1628H246.68V140.911H310.5V60.1628Z" fill="#E6E6E6"/>
<path d="M314.405 60.1628H250.586V140.911H314.405V60.1628Z" fill="#F5F5F5"/>
<path d="M307.403 137.27V63.7961H257.58V137.27H307.403Z" fill="white"/>
<path d="M307.403 137.27V63.7961H304.455V137.27H307.403Z" fill="#E6E6E6"/>
<path d="M311.511 119.75H253.48V124.628H311.511V119.75Z" fill="#F5F5F5"/>
<path d="M311.511 80.3831H253.48V85.2611H311.511V80.3831Z" fill="#F5F5F5"/>
<path d="M138.414 60.1628H74.5946V140.911H138.414V60.1628Z" fill="#E6E6E6"/>
<path d="M142.32 60.1628H78.5002V140.911H142.32V60.1628Z" fill="#F5F5F5"/>
<path d="M135.318 137.27V63.7961H85.4944V137.27H135.318Z" fill="white"/>
<path d="M135.318 137.27V63.7961H132.369V137.27H135.318Z" fill="#E6E6E6"/>
<path d="M139.425 125.632H81.3944V130.51H139.425V125.632Z" fill="#F5F5F5"/>
<path d="M139.425 88.8943H81.3944V93.7724H139.425V88.8943Z" fill="#F5F5F5"/>
<path d="M287.72 180.496H275.412C275.412 180.496 277.551 187.171 277.551 191.092C277.551 195.014 268.177 210.41 281.574 210.41C294.971 210.41 285.596 195.021 285.596 191.092C285.596 187.164 287.72 180.496 287.72 180.496Z" fill="#E6E6E6"/>
<path d="M242.184 203.976C242.184 207.508 249.131 210.395 257.635 210.395H265.298C273.802 210.395 280.749 207.508 280.749 203.976H242.184Z" fill="#F0F0F0"/>
<path d="M109.962 194.243H96.4253V210.395H109.962V194.243Z" fill="#E6E6E6"/>
<path d="M109.97 210.395H123.507V194.243H109.97V210.395Z" fill="#F5F5F5"/>
<path d="M125.515 197.558H114.755V210.395H125.515V197.558Z" fill="#E6E6E6"/>
<path d="M125.522 210.395H136.282V197.558H125.522V210.395Z" fill="#F5F5F5"/>
<path d="M194.5 332.642C277.81 332.642 345.346 328.699 345.346 323.835C345.346 318.971 277.81 315.028 194.5 315.028C111.19 315.028 43.6536 318.971 43.6536 323.835C43.6536 328.699 111.19 332.642 194.5 332.642Z" fill="#F5F5F5"/>
<path d="M223.099 278.018H118.256C115.749 277.987 113.347 277.006 111.535 275.273C109.723 273.541 108.636 271.185 108.492 268.682L99.7863 79.356C99.7215 78.149 99.9044 76.9416 100.324 75.8079C100.743 74.6743 101.389 73.6383 102.224 72.7639C103.058 71.8894 104.063 71.1949 105.175 70.723C106.288 70.2511 107.486 70.0119 108.694 70.02H213.553C216.055 70.0591 218.449 71.0435 220.254 72.7754C222.06 74.5073 223.143 76.8583 223.286 79.356L231.976 268.667C232.043 269.872 231.863 271.079 231.446 272.212C231.03 273.346 230.387 274.382 229.555 275.258C228.724 276.133 227.723 276.83 226.612 277.305C225.502 277.779 224.307 278.022 223.099 278.018Z" fill="#263238"/>
<path d="M151.321 66.7603H135.504V67.5383H151.321V66.7603Z" fill="#407BFF"/>
<path d="M130.315 66.7603H126.059V67.5383H130.315V66.7603Z" fill="#407BFF"/>
<path d="M224.196 277.474H119.345C116.838 277.442 114.437 276.462 112.624 274.729C110.812 272.996 109.725 270.641 109.581 268.138L100.891 78.8194C100.826 77.6124 101.009 76.405 101.428 75.2713C101.847 74.1376 102.494 73.1017 103.329 72.2273C104.163 71.3528 105.167 70.6582 106.28 70.1864C107.393 69.7145 108.59 69.4753 109.799 69.4834H214.65C217.157 69.5147 219.559 70.4956 221.371 72.2283C223.183 73.9609 224.271 76.3163 224.414 78.8194L233.104 268.138C233.169 269.345 232.986 270.552 232.567 271.686C232.148 272.82 231.501 273.855 230.667 274.73C229.832 275.604 228.828 276.299 227.715 276.771C226.602 277.243 225.405 277.482 224.196 277.474Z" fill="#407BFF"/>
<path d="M119.166 273.584C117.703 273.57 116.299 272.999 115.241 271.988C114.183 270.976 113.55 269.599 113.471 268.138L104.781 78.8193C104.741 78.1152 104.845 77.4102 105.088 76.7482C105.331 76.0862 105.708 75.4811 106.194 74.9705C106.681 74.4599 107.267 74.0547 107.917 73.7799C108.566 73.5052 109.265 73.3668 109.97 73.3733H214.829C216.293 73.387 217.696 73.9577 218.754 74.9693C219.812 75.981 220.445 77.3576 220.524 78.8193L229.214 268.138C229.254 268.842 229.148 269.546 228.905 270.208C228.661 270.869 228.285 271.474 227.799 271.984C227.312 272.494 226.727 272.9 226.078 273.175C225.429 273.45 224.73 273.589 224.025 273.584H119.166Z" fill="white"/>
<path d="M163.995 122.372C159.212 122.322 154.627 120.455 151.169 117.149C147.712 113.844 145.641 109.347 145.377 104.571C145.249 102.266 145.596 99.959 146.394 97.7929C147.193 95.6267 148.428 93.6473 150.022 91.977C151.615 90.3066 153.535 88.9807 155.661 88.0812C157.787 87.1817 160.075 86.7277 162.384 86.7472C167.167 86.799 171.75 88.6666 175.207 91.9718C178.664 95.277 180.735 99.7726 181.002 104.548C181.132 106.854 180.787 109.161 179.989 111.329C179.191 113.496 177.957 115.476 176.362 117.147C174.768 118.818 172.848 120.144 170.72 121.042C168.593 121.941 166.304 122.394 163.995 122.372ZM162.384 87.3073C160.151 87.289 157.939 87.7286 155.882 88.5989C153.826 89.4692 151.97 90.7517 150.429 92.3674C148.887 93.983 147.694 95.8974 146.921 97.9923C146.149 100.087 145.814 102.318 145.937 104.548C146.194 109.18 148.202 113.541 151.555 116.747C154.909 119.953 159.356 121.763 163.995 121.812C166.227 121.83 168.44 121.39 170.496 120.52C172.553 119.65 174.409 118.367 175.95 116.752C177.491 115.136 178.685 113.222 179.458 111.127C180.23 109.032 180.565 106.801 180.442 104.571C180.185 99.9391 178.177 95.5779 174.823 92.3721C171.47 89.1662 167.023 87.3555 162.384 87.3073Z" fill="#E0E0E0"/>
<path d="M150.629 116.793H152.426C152.197 117.045 152.02 117.34 151.905 117.66C151.791 117.981 151.74 118.321 151.757 118.661C151.796 119.393 152.113 120.084 152.644 120.591C153.174 121.098 153.878 121.384 154.612 121.391C154.966 121.395 155.317 121.326 155.643 121.189C155.969 121.051 156.264 120.848 156.508 120.592C156.752 120.336 156.942 120.032 157.064 119.7C157.186 119.368 157.239 119.014 157.218 118.661C157.176 117.956 156.877 117.292 156.378 116.793H171.16C170.701 117.304 170.463 117.975 170.499 118.661C170.538 119.393 170.855 120.084 171.386 120.591C171.916 121.098 172.62 121.384 173.354 121.391C173.707 121.394 174.057 121.324 174.383 121.186C174.708 121.048 175.001 120.845 175.245 120.589C175.489 120.333 175.677 120.03 175.799 119.698C175.92 119.366 175.973 119.013 175.952 118.661C175.916 117.956 175.62 117.291 175.12 116.793H176.909L176.832 115.074H150.551L150.629 116.793Z" fill="#407BFF"/>
<path d="M183.554 92.761H180.06H177.726H145.237L151.352 112.382H175.75L179.679 94.4804H183.631L183.554 92.761Z" fill="#407BFF"/>
<path d="M165.66 229.284H123.865C123.797 229.284 123.73 229.258 123.681 229.21C123.632 229.162 123.603 229.096 123.601 229.028L121.679 187.234C121.678 187.162 121.703 187.093 121.749 187.039C121.775 187.014 121.805 186.994 121.839 186.981C121.872 186.967 121.908 186.961 121.944 186.961H163.738C163.805 186.961 163.87 186.987 163.92 187.033C163.969 187.079 163.998 187.143 164.002 187.21L165.924 229.004C165.926 229.04 165.919 229.076 165.906 229.11C165.893 229.143 165.872 229.174 165.846 229.199C165.823 229.226 165.794 229.247 165.762 229.262C165.73 229.277 165.695 229.284 165.66 229.284ZM124.114 228.755H165.348L163.458 187.521H122.224L124.114 228.755Z" fill="#E0E0E0"/>
<path d="M152.107 193.146H134.119C134.062 193.145 134.004 193.156 133.951 193.178C133.897 193.2 133.849 193.233 133.809 193.275C133.769 193.316 133.737 193.366 133.717 193.42C133.697 193.474 133.688 193.532 133.692 193.59L133.746 194.772L134.151 203.595L135.014 222.329C135.014 222.535 135.096 222.733 135.242 222.879C135.388 223.025 135.586 223.107 135.792 223.107H141.853C141.948 223.108 142.042 223.09 142.13 223.055C142.218 223.02 142.299 222.967 142.367 222.901C142.435 222.834 142.489 222.755 142.526 222.668C142.563 222.58 142.583 222.486 142.584 222.391L142.981 203.603H144.156L146.28 222.391C146.295 222.587 146.384 222.769 146.528 222.902C146.673 223.034 146.862 223.108 147.058 223.107H153.126C153.226 223.107 153.325 223.087 153.417 223.047C153.509 223.008 153.592 222.95 153.66 222.877C153.729 222.804 153.782 222.717 153.816 222.623C153.85 222.529 153.864 222.429 153.857 222.329L152.994 203.595L152.589 194.772L152.535 193.59C152.529 193.477 152.483 193.369 152.404 193.287C152.326 193.206 152.22 193.156 152.107 193.146Z" fill="#E0E0E0"/>
<path d="M215.234 229.284H173.439C173.371 229.284 173.305 229.258 173.255 229.21C173.206 229.162 173.177 229.096 173.175 229.028L171.253 187.234C171.252 187.162 171.277 187.093 171.323 187.039C171.349 187.014 171.379 186.994 171.413 186.981C171.446 186.967 171.482 186.961 171.518 186.961H213.312C213.38 186.961 213.445 186.987 213.494 187.033C213.543 187.079 213.573 187.143 213.577 187.21L215.506 229.004C215.507 229.04 215.501 229.076 215.488 229.11C215.474 229.143 215.454 229.174 215.428 229.199C215.404 229.227 215.374 229.249 215.341 229.263C215.307 229.278 215.27 229.285 215.234 229.284ZM173.688 228.755H214.922L213.032 187.521H171.798L173.688 228.755Z" fill="#E0E0E0"/>
<path d="M203.385 223.628H184.791L183.445 194.243H202.031L203.385 223.628Z" fill="#E0E0E0"/>
<path d="M180.27 208.38L176.131 200.195L183.445 194.243L187.498 200.561L180.27 208.38Z" fill="#E0E0E0"/>
<path d="M206.505 208.38L209.897 200.195L202.031 194.243L198.561 200.561L206.505 208.38Z" fill="#E0E0E0"/>
<path d="M188.151 194.243C188.219 195.475 188.752 196.635 189.644 197.488C190.535 198.34 191.718 198.822 192.952 198.834C193.547 198.84 194.137 198.724 194.685 198.493C195.233 198.262 195.728 197.92 196.139 197.49C196.549 197.059 196.867 196.549 197.072 195.99C197.278 195.432 197.366 194.837 197.332 194.243H188.151Z" fill="#EBEBEB"/>
<path d="M212.954 179.835H171.16C171.059 179.835 170.963 179.796 170.89 179.726C170.818 179.657 170.775 179.562 170.771 179.461L168.826 137.706C168.823 137.654 168.83 137.601 168.847 137.552C168.865 137.502 168.892 137.457 168.927 137.418C168.964 137.379 169.009 137.348 169.059 137.327C169.108 137.306 169.161 137.294 169.215 137.294H211.009C211.11 137.294 211.206 137.332 211.279 137.402C211.351 137.472 211.394 137.567 211.398 137.667L213.312 179.461C213.315 179.514 213.308 179.566 213.291 179.616C213.274 179.665 213.246 179.71 213.211 179.749C213.138 179.806 213.047 179.837 212.954 179.835ZM171.533 179.057H212.55L210.667 138.033H169.651L171.533 179.057Z" fill="#407BFF"/>
<path d="M204.474 153.966L199.938 153.632L200.039 153.289C200.121 152.996 200.133 152.688 200.076 152.39C200.019 152.091 199.894 151.809 199.71 151.567C199.527 151.324 199.289 151.128 199.017 150.992C198.745 150.856 198.445 150.785 198.141 150.784H193.426C193.121 150.783 192.82 150.86 192.553 151.007C192.285 151.154 192.059 151.366 191.896 151.624C191.733 151.882 191.637 152.178 191.619 152.482C191.601 152.787 191.661 153.092 191.793 153.367L192.376 154.69L191.987 154.791L190.906 155.079L189.101 155.546L188.019 155.826L186.222 156.292L185.141 156.573L180.675 157.74C178.823 158.269 177.267 159.381 177.361 161.334C177.419 162.311 177.844 163.231 178.551 163.908C179.258 164.586 180.194 164.973 181.173 164.99H203.058C203.461 164.996 203.86 164.917 204.231 164.761C204.602 164.604 204.936 164.372 205.213 164.08C205.49 163.788 205.704 163.441 205.84 163.062C205.977 162.683 206.033 162.28 206.007 161.878L205.703 155.234C205.681 154.912 205.545 154.608 205.32 154.376C205.095 154.144 204.796 153.998 204.474 153.966Z" fill="#407BFF"/>
<path opacity="0.3" d="M194.788 156.145L193.722 156.433L190.906 155.079L191.995 154.791L194.788 156.145Z" fill="white"/>
<path opacity="0.3" d="M191.94 156.915L190.875 157.203L188.019 155.826L189.101 155.546L191.94 156.915Z" fill="white"/>
<path opacity="0.3" d="M189.093 157.685L188.027 157.973L185.141 156.573L186.222 156.292L189.093 157.685Z" fill="white"/>
<path opacity="0.3" d="M205.96 160.074L206.038 161.902C206.065 162.304 206.008 162.707 205.871 163.086C205.735 163.464 205.522 163.811 205.245 164.103C204.968 164.396 204.633 164.627 204.262 164.784C203.891 164.941 203.492 165.019 203.089 165.014H199.464C199.65 163.627 200.336 162.357 201.393 161.441C202.451 160.526 203.807 160.028 205.205 160.042C205.457 160.037 205.709 160.047 205.96 160.074Z" fill="white"/>
<path d="M163.38 179.718H121.586C121.518 179.716 121.453 179.689 121.404 179.641C121.355 179.594 121.325 179.53 121.321 179.461L119.4 137.667C119.399 137.631 119.406 137.596 119.419 137.562C119.432 137.529 119.452 137.498 119.477 137.473C119.501 137.446 119.529 137.425 119.562 137.41C119.594 137.395 119.629 137.387 119.664 137.387H161.466C161.534 137.389 161.599 137.416 161.648 137.464C161.697 137.512 161.727 137.576 161.731 137.644L163.645 179.438C163.647 179.474 163.641 179.509 163.629 179.542C163.617 179.576 163.599 179.607 163.575 179.633C163.523 179.686 163.454 179.716 163.38 179.718ZM121.843 179.189H163.077L161.178 137.916H119.944L121.843 179.189Z" fill="#E0E0E0"/>
<path d="M156.378 151.617L156.541 155.087C156.565 155.441 156.51 155.796 156.38 156.127C156.25 156.458 156.048 156.755 155.789 156.999C155.53 157.242 155.22 157.425 154.882 157.534C154.544 157.643 154.186 157.676 153.834 157.631C153.532 157.593 153.228 157.575 152.924 157.576C151.952 157.572 150.992 157.787 150.115 158.206C149.006 158.753 148.082 159.612 147.457 160.678C146.832 161.745 146.534 162.971 146.598 164.205V164.368C146.631 165.013 146.483 165.655 146.171 166.22C145.874 166.746 145.441 167.182 144.919 167.484C144.396 167.787 143.802 167.944 143.199 167.939H140.756C140.135 167.933 139.526 167.773 138.982 167.473C138.439 167.173 137.979 166.742 137.644 166.22C137.279 165.668 137.069 165.029 137.037 164.368V164.205C136.973 162.86 136.512 161.563 135.714 160.478C135.002 159.501 134.055 158.72 132.96 158.206C132.065 157.791 131.091 157.576 130.105 157.576C129.801 157.575 129.497 157.593 129.195 157.631C128.832 157.668 128.466 157.631 128.119 157.522C127.771 157.412 127.45 157.233 127.174 156.995C126.899 156.756 126.675 156.464 126.517 156.136C126.358 155.808 126.269 155.451 126.254 155.087L126.098 151.617C126.088 151.472 126.109 151.326 126.158 151.19C126.208 151.053 126.285 150.928 126.385 150.823C126.485 150.717 126.606 150.634 126.74 150.578C126.874 150.522 127.019 150.494 127.164 150.496H155.219C155.518 150.502 155.804 150.621 156.019 150.829C156.234 151.036 156.362 151.318 156.378 151.617Z" fill="#E0E0E0"/>
<path d="M146.147 166.22C145.85 166.745 145.418 167.182 144.896 167.484C144.373 167.787 143.779 167.944 143.175 167.939H140.732C140.112 167.933 139.502 167.773 138.959 167.473C138.416 167.172 137.956 166.742 137.62 166.22C137.924 165.37 138.486 164.636 139.226 164.12C139.967 163.604 140.849 163.332 141.752 163.341C142.683 163.351 143.591 163.628 144.37 164.138C145.149 164.648 145.766 165.37 146.147 166.22Z" fill="#EBEBEB"/>
<path d="M187.187 263.641H155.087C153.268 263.62 151.526 262.91 150.212 261.653C148.897 260.397 148.109 258.688 148.007 256.872L147.587 247.848C147.54 246.972 147.673 246.095 147.977 245.273C148.282 244.45 148.751 243.698 149.356 243.064C149.962 242.429 150.691 241.925 151.498 241.582C152.306 241.24 153.175 241.066 154.052 241.071H186.152C187.971 241.094 189.714 241.806 191.028 243.064C192.342 244.322 193.13 246.031 193.232 247.848L193.652 256.872C193.699 257.748 193.566 258.624 193.261 259.446C192.957 260.268 192.487 261.02 191.882 261.654C191.276 262.288 190.547 262.791 189.74 263.133C188.932 263.475 188.064 263.648 187.187 263.641Z" fill="#407BFF"/>
<path d="M155.242 247.544H160.688C161.458 247.498 162.218 247.739 162.82 248.221C163.064 248.43 163.263 248.687 163.404 248.976C163.544 249.265 163.624 249.58 163.637 249.902C163.672 250.422 163.508 250.937 163.178 251.341C162.908 251.636 162.564 251.853 162.182 251.971C162.779 252.077 163.325 252.375 163.738 252.819C164.093 253.239 164.289 253.771 164.29 254.321C164.321 254.779 164.224 255.237 164.01 255.643C163.803 256.031 163.494 256.353 163.115 256.577C162.772 256.747 162.4 256.85 162.018 256.88C161.586 256.95 161.149 256.994 160.711 257.012H155.678L155.242 247.544ZM158.354 251.255H159.63C159.961 251.291 160.295 251.208 160.571 251.022C160.66 250.933 160.727 250.825 160.767 250.707C160.808 250.588 160.82 250.462 160.805 250.337C160.806 250.214 160.78 250.093 160.729 249.981C160.678 249.87 160.603 249.771 160.509 249.691C160.231 249.51 159.899 249.428 159.568 249.458H158.276L158.354 251.255ZM158.525 254.974H160.019C160.392 255.012 160.766 254.919 161.077 254.71C161.175 254.618 161.251 254.505 161.298 254.38C161.345 254.254 161.363 254.119 161.349 253.986C161.348 253.856 161.317 253.729 161.259 253.613C161.201 253.497 161.118 253.396 161.015 253.317C160.689 253.116 160.307 253.026 159.926 253.06H158.44L158.525 254.974Z" fill="white"/>
<path d="M171.347 247.544H174.272L174.537 253.184C174.56 253.71 174.494 254.237 174.342 254.74C174.19 255.229 173.923 255.675 173.564 256.04C173.248 256.381 172.86 256.646 172.428 256.818C171.773 257.045 171.083 257.153 170.39 257.137C169.885 257.135 169.381 257.101 168.881 257.036C168.399 256.994 167.93 256.865 167.496 256.654C167.103 256.446 166.75 256.169 166.453 255.837C166.157 255.523 165.927 255.153 165.776 254.748C165.591 254.232 165.476 253.693 165.434 253.146L165.177 247.505H168.095L168.359 253.278C168.356 253.731 168.532 254.167 168.849 254.492C169.011 254.641 169.201 254.756 169.409 254.831C169.616 254.906 169.835 254.938 170.055 254.927C170.269 254.94 170.483 254.908 170.683 254.835C170.884 254.761 171.068 254.647 171.222 254.499C171.365 254.332 171.472 254.138 171.537 253.928C171.601 253.717 171.621 253.496 171.596 253.278L171.347 247.544Z" fill="white"/>
<path d="M175.252 247.544H178.497L180.551 250.734L182.317 247.544H185.553L182.122 253.045L182.309 257.012H179.376L179.189 253.045L175.252 247.544Z" fill="white"/>
<path d="M266.395 148.816C267.173 149.757 267.757 150.59 268.379 151.492C269.001 152.395 269.569 153.289 270.137 154.2C271.269 156.039 272.308 157.935 273.249 159.879C273.724 160.844 274.159 161.832 274.587 162.828C275.015 163.823 275.365 164.835 275.739 165.87C276.461 167.929 277.046 170.034 277.489 172.171V172.319C277.535 172.518 277.551 172.723 277.536 172.926C277.423 174.561 277.225 176.189 276.945 177.804C276.672 179.407 276.315 180.986 275.894 182.542C275.474 184.098 274.984 185.654 274.447 187.125C273.896 188.643 273.265 190.131 272.557 191.583C272.383 191.945 272.081 192.231 271.71 192.386C271.338 192.54 270.923 192.552 270.543 192.419C270.164 192.286 269.846 192.017 269.652 191.665C269.458 191.312 269.401 190.901 269.491 190.509V190.439C269.803 189.015 270.122 187.506 270.363 186.028C270.604 184.549 270.861 183.056 271.032 181.57C271.203 180.084 271.359 178.613 271.46 177.143C271.561 175.672 271.576 174.21 271.584 172.763L271.662 173.541C271.149 171.693 270.533 169.875 269.818 168.095C269.087 166.305 268.262 164.539 267.391 162.812C266.52 161.085 265.524 159.381 264.489 157.724C263.968 156.899 263.446 156.075 262.894 155.273C262.342 154.472 261.766 153.647 261.26 152.939L261.19 152.854C260.656 152.166 260.417 151.293 260.525 150.429C260.634 149.564 261.082 148.778 261.77 148.244C262.458 147.71 263.33 147.47 264.195 147.579C265.059 147.688 265.845 148.135 266.379 148.824L266.395 148.816Z" fill="#FF8B7B"/>
<path d="M270.347 188.992L266.411 194.15L272.938 193.839C272.938 193.839 274.751 190.128 273.187 187.957L270.347 188.992Z" fill="#FF8B7B"/>
<path d="M266.473 199.557L271.927 198.997L272.938 193.839L266.411 194.15L266.473 199.557Z" fill="#FF8B7B"/>
<path d="M255.581 133.466C254.958 137.309 254.453 144.319 257.207 146.77C255.16 150.332 252.036 153.151 248.283 154.822C243.071 151.804 245.358 147.151 245.358 147.151C249.575 145.992 249.357 142.841 248.517 139.9L255.581 133.466Z" fill="#FF8B7B"/>
<path d="M241.795 125.982C241.725 126.495 241.39 126.868 241.017 126.822C240.643 126.775 240.472 126.324 240.542 125.81C240.612 125.297 240.947 124.916 241.281 124.962C241.616 125.009 241.872 125.468 241.795 125.982Z" fill="#263238"/>
<path d="M241.468 125.017L240.285 124.48C240.285 124.48 240.775 125.538 241.468 125.017Z" fill="#263238"/>
<path d="M241.507 127.141C240.885 128.246 240.112 129.259 239.212 130.152C239.447 130.376 239.728 130.547 240.035 130.652C240.343 130.757 240.67 130.793 240.993 130.759L241.507 127.141Z" fill="#FF5652"/>
<path d="M243.615 123.43C243.688 123.457 243.768 123.457 243.841 123.43C243.876 123.41 243.907 123.383 243.931 123.351C243.956 123.319 243.974 123.282 243.984 123.243C243.994 123.204 243.996 123.163 243.99 123.123C243.984 123.083 243.971 123.044 243.95 123.01C243.715 122.582 243.38 122.217 242.973 121.946C242.567 121.675 242.101 121.506 241.616 121.454C241.536 121.452 241.458 121.48 241.399 121.534C241.339 121.587 241.303 121.662 241.297 121.742C241.294 121.822 241.323 121.901 241.376 121.962C241.43 122.022 241.504 122.06 241.585 122.068C241.964 122.115 242.328 122.252 242.644 122.467C242.961 122.682 243.222 122.97 243.405 123.305C243.429 123.34 243.46 123.369 243.497 123.39C243.533 123.412 243.573 123.425 243.615 123.43Z" fill="#263238"/>
<path d="M259.362 126.332C258.078 132.556 257.666 135.263 254.025 138.041C248.54 142.234 241.141 139.286 240.534 132.781C239.982 126.923 242.176 117.68 248.703 116.047C250.141 115.68 251.649 115.687 253.084 116.067C254.518 116.447 255.832 117.187 256.9 118.218C257.968 119.248 258.755 120.535 259.186 121.955C259.616 123.375 259.677 124.882 259.362 126.332Z" fill="#FF8B7B"/>
<path d="M242.658 186.922C242.658 186.922 241.102 235.345 241.483 254.951C241.919 275.342 242.114 322.971 242.114 322.971H245.677C245.677 322.971 255.472 283.387 253.045 254.951C256.717 233.112 259.206 186.922 259.206 186.922H242.658Z" fill="#FF8B7B"/>
<path d="M243.724 186.922C243.724 186.922 256.522 235.345 261.408 254.951C266.481 275.342 277.497 322.971 277.497 322.971H281.06C281.06 322.971 281.838 283.387 272.977 254.951C271.693 233.112 263.688 186.922 263.688 186.922H243.724Z" fill="#FF8B7B"/>
<path d="M235.026 152.418C235.051 151.226 235.49 150.08 236.268 149.177C237.046 148.274 238.114 147.67 239.289 147.47C241.367 147.12 244.097 146.692 246.649 146.474C250.596 146.186 254.559 146.186 258.506 146.474C260.062 146.567 261.501 146.676 262.839 146.832C263.631 146.922 264.394 147.176 265.081 147.579C265.768 147.981 266.363 148.523 266.829 149.169C267.294 149.816 267.619 150.552 267.783 151.331C267.946 152.11 267.945 152.915 267.78 153.694C264.108 170.95 264.574 177.314 264.971 186.922C275.723 202.653 272.985 224.974 274.307 244.035L239.873 256.094C238.068 224.671 238.854 191.73 239.966 186.922C236.691 166.78 234.956 157.086 235.026 152.418Z" fill="#407BFF"/>
<path opacity="0.2" d="M255.876 231.3L257.432 209.516L263.835 205.408L255.876 231.3Z" fill="#263238"/>
<path d="M265.212 187.405L239.71 189.303C239.629 189.314 239.546 189.308 239.468 189.285C239.389 189.262 239.317 189.223 239.254 189.17C239.192 189.117 239.141 189.052 239.106 188.978C239.07 188.905 239.051 188.825 239.048 188.743L238.955 186.619C238.957 186.404 239.037 186.197 239.18 186.037C239.323 185.877 239.52 185.774 239.733 185.748L265.298 183.849C265.378 183.839 265.46 183.847 265.537 183.87C265.615 183.893 265.687 183.933 265.748 183.985C265.81 184.038 265.859 184.103 265.894 184.176C265.929 184.249 265.949 184.328 265.952 184.409L266.053 186.533C266.047 186.757 265.958 186.971 265.802 187.133C265.647 187.294 265.436 187.391 265.212 187.405Z" fill="#263238"/>
<path d="M248.875 146.046L254.927 147.493L256.18 146.155L254.188 145.681L248.875 146.046Z" fill="#FF8B7B"/>
<path d="M241.227 151.92C241.227 153.048 241.227 153.982 241.227 154.993C241.227 156.005 241.11 156.969 241.024 157.95C240.845 159.918 240.519 161.84 240.145 163.8C239.38 167.715 238.147 171.523 236.473 175.143L235.781 176.536C235.648 176.785 235.578 176.964 235.399 177.26C235.221 177.561 235.027 177.852 234.816 178.131C233.939 179.38 232.676 180.306 231.221 180.767C229.766 181.228 228.2 181.199 226.764 180.683C225.656 180.294 224.609 179.752 223.652 179.072C221.983 177.863 220.468 176.455 219.139 174.879C218.478 174.101 217.887 173.323 217.311 172.545C216.735 171.767 216.191 170.989 215.662 170.094C215.448 169.75 215.37 169.34 215.443 168.941C215.515 168.543 215.733 168.186 216.053 167.939C216.374 167.692 216.775 167.573 217.178 167.605C217.581 167.636 217.959 167.817 218.237 168.11L218.276 168.149C219.489 169.417 220.835 170.693 222.166 171.837C223.431 172.96 224.82 173.936 226.305 174.747C226.908 175.101 227.561 175.364 228.242 175.525C228.619 175.635 229.023 175.613 229.386 175.462C229.668 175.272 229.902 175.019 230.07 174.723L230.241 174.412C230.296 174.303 230.397 174.047 230.467 173.875L230.957 172.716C232.226 169.446 233.167 166.058 233.766 162.602C234.069 160.859 234.271 159.093 234.45 157.335C234.536 156.456 234.598 155.569 234.637 154.698C234.676 153.826 234.707 152.9 234.707 152.154V152.029C234.733 151.183 235.084 150.379 235.687 149.785C236.291 149.191 237.099 148.853 237.946 148.84C238.792 148.827 239.611 149.14 240.232 149.716C240.854 150.291 241.229 151.083 241.281 151.928L241.227 151.92Z" fill="#FF8B7B"/>
<path d="M218.867 168.935L214.853 163.831L213.53 170.234C213.53 170.234 216.642 172.918 219.155 171.946L218.867 168.935Z" fill="#FF8B7B"/>
<path d="M209.609 162.54L208.784 167.962L213.522 170.234L214.86 163.831L209.609 162.54Z" fill="#FF8B7B"/>
<path d="M245.49 128.533C247.365 130.867 239.266 132.797 242.191 139.387C245.117 145.976 237.523 143.277 241.787 152.286C245.988 161.163 261.097 165.815 269.795 162.166C266.426 161.552 263.726 157.389 266.566 155.343C270.635 152.395 271.646 148.162 269.452 144.28C267.259 140.398 261.875 134.291 264.349 129.537C267.375 123.725 267.461 119.633 261.237 115.082C254.873 110.414 240.581 106.524 241.009 115.183C241.437 123.842 245.49 128.533 245.49 128.533Z" fill="#263238"/>
<path d="M261.587 134.898L254.149 134.174C253.774 134.146 253.409 134.035 253.082 133.848C252.755 133.661 252.475 133.403 252.26 133.094C252.046 132.784 251.904 132.43 251.845 132.059C251.785 131.687 251.81 131.306 251.916 130.945C252.137 130.144 252.627 129.442 253.305 128.96C253.982 128.479 254.806 128.245 255.635 128.3L263.065 129.031C263.441 129.059 263.805 129.17 264.132 129.357C264.459 129.544 264.74 129.802 264.954 130.112C265.168 130.421 265.31 130.775 265.37 131.147C265.429 131.519 265.405 131.899 265.298 132.26C265.075 133.058 264.585 133.756 263.909 134.236C263.234 134.716 262.414 134.949 261.587 134.898Z" fill="#407BFF"/>
<path d="M247.404 127.942C246.982 129.102 246.117 130.048 245 130.572C243.514 131.249 242.51 129.98 242.713 128.448C242.892 127.063 243.887 125.04 245.482 125.009C245.831 125.008 246.173 125.094 246.48 125.259C246.787 125.425 247.047 125.664 247.238 125.955C247.429 126.246 247.544 126.58 247.573 126.927C247.602 127.274 247.544 127.623 247.404 127.942Z" fill="#FF8B7B"/>
<path d="M241.872 321.866H246.097C246.21 321.866 246.32 321.904 246.407 321.975C246.495 322.046 246.556 322.145 246.579 322.255L247.396 326.332C247.425 326.455 247.425 326.583 247.396 326.706C247.368 326.829 247.312 326.944 247.232 327.043C247.153 327.141 247.052 327.22 246.937 327.273C246.823 327.327 246.698 327.353 246.572 327.351C244.323 327.312 243.639 327.18 240.814 327.18C238.387 327.18 237.85 327.359 233.968 327.359C231.634 327.359 232.21 325.461 233.19 325.313C236.691 324.8 238.161 324.535 240.729 322.668C241.18 322.372 241.375 321.866 241.872 321.866Z" fill="#263238"/>
<path d="M276.867 321.866H281.091C281.205 321.867 281.315 321.905 281.404 321.976C281.493 322.047 281.555 322.145 281.581 322.255L282.359 326.332C282.388 326.455 282.388 326.582 282.36 326.704C282.332 326.827 282.276 326.941 282.198 327.04C282.119 327.138 282.019 327.217 281.906 327.271C281.792 327.325 281.668 327.352 281.543 327.351C279.286 327.312 279.987 327.351 277.186 327.351H273.148C270.814 327.351 271.397 325.523 272.37 325.305C274.307 324.87 274.797 324.177 275.708 322.66C275.812 322.436 275.975 322.245 276.179 322.105C276.383 321.966 276.62 321.883 276.867 321.866Z" fill="#263238"/>
</svg>
