<svg width="33" height="31" viewBox="0 0 33 31" fill="none" xmlns="http://www.w3.org/2000/svg">
<path d="M32.2976 5.86911C32.1015 5.60066 31.7888 5.44177 31.4561 5.44177H8.03204C7.98624 5.44177 7.94123 5.4445 7.89783 5.45036L6.93345 2.6727C6.83379 2.38545 6.61359 2.15644 6.33071 2.04518L1.47262 0.137478C0.936586 -0.0720176 0.333036 0.190815 0.122479 0.725397C-0.0872749 1.26022 0.175528 1.86453 0.710761 2.07474L5.12362 3.80734L10.5242 19.3685C10.2863 19.4516 10.0838 19.6344 9.99215 19.8902L8.43065 24.2261C8.33421 24.4919 8.37439 24.7874 8.53673 25.0184C8.69987 25.2494 8.96427 25.3869 9.24635 25.3869H10.0484C9.55174 25.9397 9.24635 26.6677 9.24635 27.4682C9.24635 29.1897 10.6479 30.59 12.3702 30.59C14.0916 30.59 15.4932 29.1897 15.4932 27.4682C15.4932 26.6677 15.1878 25.9397 14.6911 25.3869H21.5005C21.0038 25.9397 20.6984 26.6677 20.6984 27.4682C20.6984 29.1897 22.0992 30.59 23.8214 30.59C25.5436 30.59 26.9452 29.1897 26.9452 27.4682C26.9452 26.6677 26.6398 25.9397 26.1432 25.3869H27.1188C27.5978 25.3869 27.986 24.9987 27.986 24.5197C27.986 24.0408 27.5978 23.6527 27.1188 23.6527H10.4808L11.4484 20.9675C11.5729 21.02 11.708 21.0511 11.8494 21.0511H27.118C27.5713 21.0511 27.9715 20.7588 28.1097 20.3282L32.4478 6.80019C32.5491 6.48338 32.4936 6.13757 32.2976 5.86911ZM12.3702 28.8557C11.6043 28.8557 10.9815 28.2334 10.9815 27.4682C10.9815 26.703 11.6043 26.0806 12.3702 26.0806C13.1352 26.0806 13.7581 26.703 13.7581 27.4682C13.7581 28.2334 13.1352 28.8557 12.3702 28.8557ZM23.8214 28.8557C23.0563 28.8557 22.4335 28.2334 22.4335 27.4682C22.4335 26.703 23.0563 26.0806 23.8214 26.0806C24.5873 26.0806 25.2101 26.703 25.2101 27.4682C25.2101 28.2334 24.5873 28.8557 23.8214 28.8557ZM29.279 9.86438H23.9661V7.52298H30.0296L29.279 9.86438ZM27.7489 14.6338H23.9661V11.9455H28.6112L27.7489 14.6338ZM17.0836 14.6338V11.9455H21.8838V14.6338H17.0836ZM21.8838 16.7151V18.9698H17.0836V16.7151H21.8838ZM10.1521 11.9455H15.0013V14.6338H11.0851L10.1521 11.9455ZM17.0836 9.86438V7.52298H21.8838V9.86438H17.0836ZM15.0013 7.52298V9.86438H9.4296L8.6171 7.52298H15.0013ZM11.8076 16.7151H15.0013V18.9698H12.5904L11.8076 16.7151ZM23.9661 18.9699V16.7152H27.0818L26.3594 18.9699H23.9661Z" fill="white"/>
</svg>
